# xmcd CD database file
#
# Track frame offsets:
#	150
#	22362
#	39910
#	65497
#	84122
#	101845
#	119000
#	138652
#	159700
#	178700
#
# Disc length: 2597 seconds
#
# Revision: 0
# Processed by: cddbd v1.5.1PL0 Copyright (c) Steve Scherf et al.
# Submitted via: CDex 1.51
#
DISCID=8c0a230a
DTITLE=Kevin Lee and The Lonesome City Kings - Restless
DYEAR=1993
DGENRE=Country
TTITLE0=Standing In The Line Of Fire
TTITLE1=If You Ever Change Your Mind
TTITLE2=Time Alone
TTITLE3=Love Was Enough
TTITLE4=River Of Doubt
TTITLE5=One Little Promise
TTITLE6=Mystery Man
TTITLE7=Saving Grace
TTITLE8=One Way Out
TTITLE9=Trouble On Your Mind
EXTD=YEAR: 1993
EXTT0=
EXTT1=
EXTT2=
EXTT3=
EXTT4=
EXTT5=
EXTT6=
EXTT7=
EXTT8=
EXTT9=
PLAYORDER=
